<svg xmlns="http://www.w3.org/2000/svg" xmlns:xlink="http://www.w3.org/1999/xlink" version="1.1" id="Layer_1" x="0px" y="0px" width="100%" viewBox="0 0 553 250" enable-background="new 0 0 553 250" xml:space="preserve">
<path fill="none" opacity="1.000000" stroke="#7197ff" stroke-linecap="round" stroke-linejoin="round" stroke-width="7.000000" d=" M272.500000,94.500000   C272.500000,82.241066 272.500000,69.982132 272.500000,58.378780   C269.781250,56.659752 267.858856,57.008102 266.000000,57.007881   C188.666672,56.998692 111.333336,56.999462 34.000000,57.001049   C28.008095,57.001171 28.001339,57.008106 28.001076,63.000000   C27.999098,108.000000 27.999102,153.000000 28.001080,198.000000   C28.001343,203.991898 28.008102,203.998825 34.000000,203.998947   C111.333336,204.000534 188.666672,204.000000 266.000000,204.000000   C267.750275,204.000000 269.500549,204.000000 271.822479,204.000000   C273.213898,191.218933 272.169159,178.836227 272.500000,166.500000  "/>
<path fill="none" opacity="1.000000" stroke="#7197ff" stroke-linecap="round" stroke-linejoin="round" stroke-width="6.000000" d=" M168.500000,130.500000   C181.002228,130.500000 193.504440,130.500000 204.284393,130.500000   C206.666351,128.833008 208.458038,127.808380 209.975830,126.472549   C214.026550,122.907463 214.587418,118.117943 212.853836,113.555534   C211.172348,109.130280 207.535599,105.714401 202.497772,105.590889   C190.837524,105.305016 179.165497,105.500000 167.500000,105.500000   C167.500000,122.169624 167.500000,138.586716 167.500000,155.500000   C179.662003,155.500000 191.642273,156.236862 203.479446,155.252823   C212.025558,154.542374 216.711319,144.195251 211.445251,136.035324   C210.320816,134.292953 208.500000,133.000000 207.000000,131.500000  "/>
<path fill="none" opacity="1.000000" stroke="#7197ff" stroke-linecap="round" stroke-linejoin="round" stroke-width="6.000000" d=" M495.500000,105.500000   C479.998199,105.500000 464.496429,105.500000 449.000000,105.500000   C449.000000,122.333336 449.000000,138.666672 449.000000,155.500000   C464.496429,155.500000 479.998199,155.500000 495.500000,155.500000  "/>
<path fill="none" opacity="1.000000" stroke="#7197ff" stroke-linecap="round" stroke-linejoin="round" stroke-width="6.000000" d=" M88.000000,131.000000   C89.666664,129.500000 91.419182,128.083893 92.982971,126.483368   C96.799553,122.577156 97.610756,118.055473 95.504860,112.997978   C93.453674,108.071915 89.649879,105.525795 83.999969,105.509766   C72.500069,105.477127 61.000000,105.500000 49.500000,105.500000  "/>
<path fill="none" opacity="1.000000" stroke="#7197ff" stroke-linecap="round" stroke-linejoin="round" stroke-width="6.000000" d=" M377.500000,104.500000   C377.500000,119.166664 377.472626,133.833420 377.522644,148.499924   C377.532867,151.500458 377.833313,154.500000 377.999969,157.500000  "/>
<path fill="none" opacity="1.000000" stroke="#7197ff" stroke-linecap="round" stroke-linejoin="round" stroke-width="5.000000" d=" M436.500000,104.500008   C429.666687,119.166672 422.767151,133.803360 416.089874,148.540710   C415.318787,150.242554 414.745361,151.725693 413.000000,152.500000  "/>
<path fill="none" opacity="1.000000" stroke="#7197ff" stroke-linecap="round" stroke-linejoin="round" stroke-width="5.000000" d=" M390.000000,105.500000   C394.666656,115.833336 399.083282,126.290100 404.098938,136.451172   C406.863159,142.051117 408.140839,148.465408 412.895020,153.107513   C413.644806,153.839630 413.000000,156.000000 413.000000,157.500000  "/>
<path fill="none" opacity="1.000000" stroke="#7197ff" stroke-linecap="round" stroke-linejoin="round" stroke-width="6.000000" d=" M450.000000,130.500000   C465.166656,130.500000 480.333344,130.500000 495.500000,130.500000  "/>
<path fill="none" opacity="1.000000" stroke="#7197ff" stroke-linecap="round" stroke-linejoin="round" stroke-width="6.000000" d=" M320.500000,130.500000   C335.000000,130.500000 349.500000,130.500000 364.000000,130.500000  "/>
<path fill="none" opacity="1.000000" stroke="#7197ff" stroke-linecap="round" stroke-linejoin="round" stroke-width="6.000000" d=" M97.000008,157.500000   C96.833336,153.500000 96.572067,149.501236 96.519691,145.499741   C96.410614,137.165085 89.797577,130.503098 81.500000,130.500748   C70.833336,130.497711 60.166668,130.500000 49.500000,130.500000  "/>
<path fill="none" opacity="1.000000" stroke="#7197ff" stroke-linecap="round" stroke-linejoin="round" stroke-width="5.000000" d=" M319.000000,103.500000   C319.000000,121.500000 319.000000,139.500000 319.000000,157.500000  "/>
<path fill="none" opacity="1.000000" stroke="#7197ff" stroke-linecap="round" stroke-linejoin="round" stroke-width="6.000000" d=" M366.000000,103.500000   C365.833344,106.500000 365.535797,109.499435 365.522797,112.500099   C365.468567,124.999863 365.500000,137.500000 365.500000,150.000000   C365.500000,152.166672 365.500000,154.333328 365.500000,156.500000  "/>
<path fill="none" opacity="1.000000" stroke="#7197ff" stroke-linecap="round" stroke-linejoin="round" stroke-width="5.000000" d=" M309.500000,130.500000   C301.017761,131.572083 292.498138,130.737946 284.000000,131.000000  "/>
<path fill="none" opacity="1.000000" stroke="#7197ff" stroke-linecap="round" stroke-linejoin="round" stroke-width="6.000000" d=" M232.500000,105.500000   C227.524231,106.557518 225.482925,109.004837 225.494492,115.000008   C225.514420,125.333305 225.467575,135.666809 225.511337,145.999954   C225.540756,152.946838 228.053146,155.455933 235.000046,155.488998   C244.333176,155.533417 253.666779,155.526199 262.999969,155.490372   C268.786469,155.468155 271.320770,153.319473 271.968475,147.496490   C273.189178,136.522949 272.561310,125.491768 272.366852,114.502357   C272.249756,107.885880 268.873810,105.504448 262.000000,105.501167   C252.333328,105.496559 242.666672,105.500000 233.000000,105.500000  "/>
<path fill="none" opacity="1.000000" stroke="#7197ff" stroke-linecap="round" stroke-linejoin="round" stroke-width="6.000000" d=" M115.500000,105.500000   C110.524193,106.557526 108.482468,109.004883 108.494522,115.000008   C108.514626,124.999969 108.460136,135.000214 108.512512,144.999939   C108.555092,153.130219 110.963310,155.493790 119.000000,155.498764   C127.833336,155.504227 136.666687,155.512024 145.500000,155.495895   C151.676682,155.484619 155.226288,153.062698 155.347961,146.996948   C155.575058,135.676224 156.212219,124.308830 154.957535,113.004715   C154.383026,107.828575 151.545425,105.510963 146.500000,105.504120   C136.333344,105.490311 126.166664,105.500000 116.000000,105.500000  "/>
</svg>